# xmcd
#
# Track frame offsets:
#	150
#	10075
#	19215
#	29247
#	40492
#	50025
#	60475
#	71262
#	82837
#	95475
#
# Disc length: 1423 seconds
#
# Revision: 2
# Processed by: cddbd v1.5.2PL0 Copyright (c) Steve Scherf et al.
# Submitted via: audiograbber 1.83.01
#
DISCID=7e058d0a
DTITLE=Various Artist - Greatest Hits
DYEAR=1900
DGENRE=Oldies
TTITLE0=Tams - Untie Me
TTITLE1=Tams - What Kind Of Fool (Do You Think I Am)
TTITLE2=Tams - You Lied To Your Daddy
TTITLE3=Tams - Hey Girl Don't Bother Me
TTITLE4=Tams - Be Young, Be Foolish, Be Happy
TTITLE5=Impressions - Gypsy Woman
TTITLE6=Impressions - We're A Winner
TTITLE7=Impressions - Keep On Pushing
TTITLE8=Impressions - It's All Right
TTITLE9=Impressions - Talking About My Baby
EXTD=
EXTT0=
EXTT1=
EXTT2=
EXTT3=
EXTT4=
EXTT5=
EXTT6=
EXTT7=
EXTT8=
EXTT9=
PLAYORDER=
